<svg width="16" height="16" viewBox="0 0 16 16" fill="none" xmlns="http://www.w3.org/2000/svg">
<path d="M4.15659 4.30201C3.30661 5.1842 2.78625 6.33211 2.68297 7.55279C2.57968 8.77346 2.89977 9.99248 3.58942 11.005C4.27908 12.0174 5.29626 12.7616 6.46999 13.1124C7.64372 13.4632 8.90245 13.3993 10.0346 12.9313C10.1113 12.4313 9.94325 11.9513 9.87459 11.7833C9.72125 11.41 9.21592 10.772 8.37258 9.88734C8.14725 9.65068 8.16192 9.46868 8.24259 8.92934L8.25125 8.86868C8.30592 8.49934 8.39792 8.28068 9.64125 8.08334C10.2733 7.98334 10.4393 8.23534 10.6693 8.58534L10.7466 8.70001C10.9653 9.02001 11.1273 9.09334 11.3719 9.20401C11.4819 9.25401 11.6186 9.31734 11.8019 9.42068C12.2366 9.66934 12.2366 9.95001 12.2366 10.5647V10.6347C12.2366 10.8953 12.2113 11.1247 12.1713 11.324C12.6828 10.682 13.0393 9.9305 13.213 9.12814C13.3866 8.32577 13.3728 7.49416 13.1725 6.69803C12.9722 5.9019 12.5908 5.16275 12.0581 4.5381C11.5254 3.91346 10.8558 3.42018 10.1013 3.09668C9.73258 3.34534 9.22658 3.69801 9.04992 3.94001C8.95992 4.06334 8.83192 4.69468 8.41658 4.74668C8.30858 4.76001 8.16258 4.75068 8.00792 4.74068C7.59325 4.71401 7.02658 4.67734 6.84525 5.17001C6.72992 5.48201 6.70992 6.33001 7.08258 6.77001C7.14258 6.84001 7.15392 6.97001 7.11325 7.11601C7.05992 7.30734 6.95259 7.42401 6.91859 7.44801C6.85459 7.41068 6.72658 7.26201 6.63925 7.16134C6.43058 6.91801 6.16925 6.61468 5.83192 6.52134C5.70925 6.48734 5.57458 6.45934 5.44325 6.43134C5.07725 6.35468 4.66325 6.26734 4.56659 6.06201C4.49592 5.91134 4.49659 5.70401 4.49659 5.48534C4.49659 5.20734 4.49659 4.89334 4.36058 4.58868C4.31331 4.47995 4.24382 4.38231 4.15659 4.30201ZM7.99992 14.6667C4.31792 14.6667 1.33325 11.682 1.33325 8.00001C1.33325 4.31801 4.31792 1.33334 7.99992 1.33334C11.6819 1.33334 14.6666 4.31801 14.6666 8.00001C14.6666 11.682 11.6819 14.6667 7.99992 14.6667Z" fill="current"/>
</svg>
