<svg width="25" height="24" viewBox="0 0 25 24" fill="none" xmlns="http://www.w3.org/2000/svg">
<path d="M19.5 10H20.5C20.7652 10 21.0196 10.1054 21.2071 10.2929C21.3946 10.4804 21.5 10.7348 21.5 11V20C21.5 20.2652 21.3946 20.5196 21.2071 20.7071C21.0196 20.8946 20.7652 21 20.5 21H4.5C4.23478 21 3.98043 20.8946 3.79289 20.7071C3.60536 20.5196 3.5 20.2652 3.5 20V11C3.5 10.7348 3.60536 10.4804 3.79289 10.2929C3.98043 10.1054 4.23478 10 4.5 10H5.5" stroke="current" stroke-width="2" stroke-linecap="round" stroke-linejoin="round"/>
<path d="M15.5 14L12.5 17L9.5 14" stroke="current" stroke-width="2" stroke-linecap="round" stroke-linejoin="round"/>
<path d="M15.5 9L12.5 12L9.5 9" stroke="current" stroke-width="2" stroke-linecap="round" stroke-linejoin="round"/>
<path d="M12.5 12V3" stroke="current" stroke-width="2" stroke-linecap="round" stroke-linejoin="round"/>
</svg>
