<svg width="36" height="18" viewBox="0 0 36 18" fill="none" xmlns="http://www.w3.org/2000/svg">
<path d="M17.9986 0C17.229 0 16.4822 0.103923 15.7735 0.309104C12.8246 1.13516 10.503 3.57069 9.71554 6.6644C9.51996 7.40785 9.4209 8.19127 9.4209 8.99867C9.4209 12.3269 11.1456 15.2367 13.7059 16.7902C12.9693 15.4659 12.5502 13.9257 12.5502 12.2842C12.5502 11.9591 12.5655 11.6367 12.601 11.3223C13.0227 7.12272 16.2053 3.78386 20.2085 3.34152C20.5082 3.30422 20.8155 3.28823 21.1254 3.28823C22.6901 3.28823 24.1582 3.7279 25.4206 4.50067C23.9449 1.80933 21.1711 0 17.9986 0Z" fill="#045599"/>
<path d="M26.2842 6.6644C25.606 9.32909 23.7873 11.5061 21.4124 12.5853C20.3659 13.065 19.2127 13.3288 17.9986 13.3288C15.9538 13.3288 14.0742 12.5774 12.6035 11.3196C12.568 11.6341 12.5527 11.9565 12.5527 12.2816C12.5527 13.923 12.9718 15.4632 13.7085 16.7876C14.3511 17.1819 15.042 17.4857 15.776 17.6909C16.4847 17.8961 17.2315 18 18.0011 18C22.7408 18 26.5814 13.9683 26.5814 8.99867C26.5788 8.19127 26.4798 7.40785 26.2842 6.6644Z" fill="#4478BB"/>
<path d="M26.2842 6.66438C25.606 9.32908 23.7873 11.5061 21.4124 12.5853C21.8721 11.4875 22.1236 10.2724 22.1236 8.99865C22.1236 6.85358 21.4073 4.88437 20.2109 3.33885C20.5107 3.30154 20.818 3.28555 21.1279 3.28555C22.6926 3.28555 24.1607 3.72523 25.4231 4.49799C25.8016 5.16949 26.0911 5.89695 26.2842 6.66438Z" fill="#F48020"/>
<path d="M7.10957 9.00133C7.10957 6.7843 7.7141 4.71384 8.75552 2.96313C4.47555 5.26543 1.62055 8.37513 0 10.4669C1.0211 11.9485 2.80167 14.1282 5.58301 15.8229C7.46772 16.9714 9.40577 17.6429 11.293 17.9973C8.7479 15.9055 7.10957 12.6546 7.10957 9.00133Z" fill="#02519E"/>
<path d="M36.0001 7.5331C34.979 6.05153 33.1984 3.87181 30.417 2.17973C28.5323 1.03125 26.5943 0.359745 24.707 0.00534058C27.2522 2.09712 28.8905 5.34805 28.8905 9.00134C28.8905 11.2184 28.286 13.2888 27.2445 15.0395C31.5245 12.7372 34.3795 9.62488 36.0001 7.5331Z" fill="#F48020"/>
</svg>
